# xmcd
#
# Track frame offsets:
#	150
#	14206
#	26181
#	32029
#	42524
#	51212
#	65324
#	70574
#	90476
#	98201
#	106076
#	113156
#	123176
#	132376
#	142596
#	151351
#	159101
#	166226
#	183701
#	195551
#	207437
#	221887
#	229126
#
# Disc length: 3191 seconds
#
# Revision: 0
# Processed by: cddbd v1.5.2PL0 Copyright (c) Steve Scherf et al.
# Submitted via: EasyCDDAExtractor 15.3.0.1
#
DISCID=3f0c7517
DTITLE=RIAS-Kammerchor, Uwe Gronostay - Weihnacht der Romantik
DYEAR=2002
DGENRE=Chor
TTITLE0=Eduard Karl Nössler: Tröstet mein Volk op. 39
TTITLE1=Max Reger: Macht hoch die Tür
TTITLE2=Mendessohn: Lasset uns frohlocken, op. 79.5
TTITLE3=Max Reger: Uns unser lieben Frauen Traum, op 138.4
TTITLE4=Max Reger: Es kommt ein Schiff geladen
TTITLE5=Albert Becker: Das Volk, das im Finstern wandelt o
TTITLE6=Max Reger: Vom Himmel hoch, da komm ich her
TTITLE7=Friedrich Silcher: Ehre sei Gott in der Höhe, op 9
TTITLE8=Max Reger: Kommt und laßt uns Christum ehren
TTITLE9=Max Reger: In dulci jubilo
TTITLE10=Robert Fuchs: O freudenreicher Tag
TTITLE11=Max Bruch: Laßt uns das Kindelein wiegen
TTITLE12=Wilhelm Kienzl: Mein Herz will ich dir schenken
TTITLE13=Max Reger: Schlaf mein Kindelein
TTITLE14=Max Reger: Das Wort ward Fleisch
TTITLE15=Carl Riedel: Kommet ihr Hirten
TTITLE16=Wilhelm Kienzl: Auf, auf, ihr Hirten
TTITLE17=Friedrich Silcher: Herbei, oh ihr Gläubigen
TTITLE18=Franz Wüllner: Kindelein zart
TTITLE19=Max Reger - O Jesulein süß
TTITLE20=Eusebius Mandyczewskij: Stille Nacht
TTITLE21=Mendelssohn: Frohlocket ihr Völker, op,79,1
TTITLE22=Hermann Riedel: O du fröhliche
EXTD=harmonia mundi - 901794\n
EXTT0=
EXTT1=
EXTT2=
EXTT3=
EXTT4=
EXTT5=
EXTT6=
EXTT7=
EXTT8=
EXTT9=
EXTT10=
EXTT11=
EXTT12=
EXTT13=
EXTT14=
EXTT15=
EXTT16=
EXTT17=
EXTT18=
EXTT19=
EXTT20=
EXTT21=
EXTT22=
PLAYORDER=
